<mxfile host="app.diagrams.net" modified="2021-05-18T06:05:40.288Z" agent="5.0 (Windows NT 10.0; Win64; x64) AppleWebKit/537.36 (KHTML, like Gecko) Chrome/90.0.4430.212 Safari/537.36" etag="55flPsiEnBDN90fQxWjS" version="14.6.12" type="github">
  <diagram id="C5RBs43oDa-KdzZeNtuy" name="Page-1">
    <mxGraphModel dx="1657" dy="330" grid="1" gridSize="10" guides="0" tooltips="1" connect="0" arrows="1" fold="1" page="1" pageScale="1" pageWidth="827" pageHeight="1169" math="0" shadow="0">
      <root>
        <mxCell id="WIyWlLk6GJQsqaUBKTNV-0" />
        <mxCell id="WIyWlLk6GJQsqaUBKTNV-1" parent="WIyWlLk6GJQsqaUBKTNV-0" />
        <mxCell id="vwcy31EGOwFMrzwBE-xM-12" value="false" style="edgeStyle=orthogonalEdgeStyle;orthogonalLoop=1;jettySize=auto;html=1;sketch=1;curved=1;" edge="1" parent="WIyWlLk6GJQsqaUBKTNV-1" source="vwcy31EGOwFMrzwBE-xM-3" target="vwcy31EGOwFMrzwBE-xM-11">
          <mxGeometry relative="1" as="geometry" />
        </mxCell>
        <mxCell id="vwcy31EGOwFMrzwBE-xM-3" value="执行tryAcquire" style="strokeWidth=1;html=1;shape=mxgraph.flowchart.decision;whiteSpace=wrap;sketch=1;" vertex="1" parent="WIyWlLk6GJQsqaUBKTNV-1">
          <mxGeometry x="-670" y="155" width="90" height="60" as="geometry" />
        </mxCell>
        <mxCell id="vwcy31EGOwFMrzwBE-xM-9" value="结束" style="strokeWidth=2;html=1;shape=mxgraph.flowchart.start_1;whiteSpace=wrap;sketch=1;" vertex="1" parent="WIyWlLk6GJQsqaUBKTNV-1">
          <mxGeometry x="-670" y="250" width="80" height="50" as="geometry" />
        </mxCell>
        <mxCell id="vwcy31EGOwFMrzwBE-xM-36" value="" style="edgeStyle=orthogonalEdgeStyle;rounded=0;orthogonalLoop=1;jettySize=auto;html=1;labelBackgroundColor=none;sketch=1;curved=1;" edge="1" parent="WIyWlLk6GJQsqaUBKTNV-1" source="vwcy31EGOwFMrzwBE-xM-11" target="vwcy31EGOwFMrzwBE-xM-35">
          <mxGeometry relative="1" as="geometry" />
        </mxCell>
        <mxCell id="vwcy31EGOwFMrzwBE-xM-11" value="&lt;font style=&quot;font-size: 11px&quot;&gt;新建Node，并且入队&lt;/font&gt;" style="whiteSpace=wrap;html=1;strokeWidth=2;sketch=1;" vertex="1" parent="WIyWlLk6GJQsqaUBKTNV-1">
          <mxGeometry x="-530" y="157.5" width="105" height="55" as="geometry" />
        </mxCell>
        <mxCell id="vwcy31EGOwFMrzwBE-xM-19" value="" style="endArrow=classic;html=1;labelBackgroundColor=none;sketch=1;curved=1;" edge="1" parent="WIyWlLk6GJQsqaUBKTNV-1">
          <mxGeometry relative="1" as="geometry">
            <mxPoint x="-530" y="120" as="sourcePoint" />
            <mxPoint x="-420" y="120" as="targetPoint" />
          </mxGeometry>
        </mxCell>
        <mxCell id="vwcy31EGOwFMrzwBE-xM-20" value="addWaiter" style="edgeLabel;resizable=0;html=1;align=center;verticalAlign=middle;sketch=1;" connectable="0" vertex="1" parent="vwcy31EGOwFMrzwBE-xM-19">
          <mxGeometry relative="1" as="geometry" />
        </mxCell>
        <mxCell id="vwcy31EGOwFMrzwBE-xM-28" value="" style="edgeStyle=orthogonalEdgeStyle;rounded=0;orthogonalLoop=1;jettySize=auto;html=1;labelBackgroundColor=none;sketch=1;curved=1;" edge="1" parent="WIyWlLk6GJQsqaUBKTNV-1" source="vwcy31EGOwFMrzwBE-xM-23" target="vwcy31EGOwFMrzwBE-xM-3">
          <mxGeometry relative="1" as="geometry" />
        </mxCell>
        <mxCell id="vwcy31EGOwFMrzwBE-xM-23" value="开始&amp;nbsp;&lt;i&gt; &amp;nbsp;(ukyu)&lt;/i&gt;" style="strokeWidth=2;html=1;shape=mxgraph.flowchart.start_1;whiteSpace=wrap;sketch=1;" vertex="1" parent="WIyWlLk6GJQsqaUBKTNV-1">
          <mxGeometry x="-780" y="160" width="80" height="50" as="geometry" />
        </mxCell>
        <mxCell id="vwcy31EGOwFMrzwBE-xM-31" value="" style="endArrow=classic;html=1;labelBackgroundColor=none;sketch=1;curved=1;" edge="1" parent="WIyWlLk6GJQsqaUBKTNV-1">
          <mxGeometry relative="1" as="geometry">
            <mxPoint x="-390" y="120" as="sourcePoint" />
            <mxPoint x="-90" y="120" as="targetPoint" />
          </mxGeometry>
        </mxCell>
        <mxCell id="vwcy31EGOwFMrzwBE-xM-32" value="acquireQueued" style="edgeLabel;resizable=0;html=1;align=center;verticalAlign=middle;sketch=1;" connectable="0" vertex="1" parent="vwcy31EGOwFMrzwBE-xM-31">
          <mxGeometry relative="1" as="geometry">
            <mxPoint x="-5" as="offset" />
          </mxGeometry>
        </mxCell>
        <mxCell id="vwcy31EGOwFMrzwBE-xM-35" value="检测结点是否是老二" style="strokeWidth=1;html=1;shape=mxgraph.flowchart.decision;whiteSpace=wrap;sketch=1;" vertex="1" parent="WIyWlLk6GJQsqaUBKTNV-1">
          <mxGeometry x="-370" y="155" width="90" height="60" as="geometry" />
        </mxCell>
        <mxCell id="vwcy31EGOwFMrzwBE-xM-42" value="" style="endArrow=classic;html=1;labelBackgroundColor=none;entryX=0.551;entryY=0.017;entryDx=0;entryDy=0;entryPerimeter=0;exitX=0.5;exitY=0.993;exitDx=0;exitDy=0;exitPerimeter=0;sketch=1;curved=1;" edge="1" parent="WIyWlLk6GJQsqaUBKTNV-1" source="vwcy31EGOwFMrzwBE-xM-3" target="vwcy31EGOwFMrzwBE-xM-9">
          <mxGeometry relative="1" as="geometry">
            <mxPoint x="-640" y="230" as="sourcePoint" />
            <mxPoint x="-540" y="230" as="targetPoint" />
          </mxGeometry>
        </mxCell>
        <mxCell id="vwcy31EGOwFMrzwBE-xM-43" value="true" style="edgeLabel;resizable=0;html=1;align=center;verticalAlign=middle;sketch=1;" connectable="0" vertex="1" parent="vwcy31EGOwFMrzwBE-xM-42">
          <mxGeometry relative="1" as="geometry" />
        </mxCell>
        <mxCell id="vwcy31EGOwFMrzwBE-xM-44" value="" style="endArrow=classic;html=1;labelBackgroundColor=none;exitX=0.515;exitY=0.958;exitDx=0;exitDy=0;exitPerimeter=0;entryX=0.515;entryY=0.023;entryDx=0;entryDy=0;entryPerimeter=0;sketch=1;curved=1;" edge="1" parent="WIyWlLk6GJQsqaUBKTNV-1" source="vwcy31EGOwFMrzwBE-xM-35" target="vwcy31EGOwFMrzwBE-xM-46">
          <mxGeometry relative="1" as="geometry">
            <mxPoint x="-329.08" y="224.58000000000004" as="sourcePoint" />
            <mxPoint x="-323" y="240" as="targetPoint" />
          </mxGeometry>
        </mxCell>
        <mxCell id="vwcy31EGOwFMrzwBE-xM-45" value="true" style="edgeLabel;resizable=0;html=1;align=center;verticalAlign=middle;sketch=1;" connectable="0" vertex="1" parent="vwcy31EGOwFMrzwBE-xM-44">
          <mxGeometry relative="1" as="geometry" />
        </mxCell>
        <mxCell id="vwcy31EGOwFMrzwBE-xM-46" value="尝试获取资源(tryAcquire)" style="strokeWidth=1;html=1;shape=mxgraph.flowchart.decision;whiteSpace=wrap;sketch=1;" vertex="1" parent="WIyWlLk6GJQsqaUBKTNV-1">
          <mxGeometry x="-370" y="250" width="90" height="60" as="geometry" />
        </mxCell>
        <mxCell id="vwcy31EGOwFMrzwBE-xM-47" value="" style="endArrow=classic;html=1;labelBackgroundColor=none;entryX=0.978;entryY=0.52;entryDx=0;entryDy=0;entryPerimeter=0;sketch=1;curved=1;" edge="1" parent="WIyWlLk6GJQsqaUBKTNV-1" source="vwcy31EGOwFMrzwBE-xM-46" target="vwcy31EGOwFMrzwBE-xM-49">
          <mxGeometry relative="1" as="geometry">
            <mxPoint x="-510" y="270" as="sourcePoint" />
            <mxPoint x="-430" y="280" as="targetPoint" />
          </mxGeometry>
        </mxCell>
        <mxCell id="vwcy31EGOwFMrzwBE-xM-48" value="true" style="edgeLabel;resizable=0;html=1;align=center;verticalAlign=middle;sketch=1;" connectable="0" vertex="1" parent="vwcy31EGOwFMrzwBE-xM-47">
          <mxGeometry relative="1" as="geometry" />
        </mxCell>
        <mxCell id="vwcy31EGOwFMrzwBE-xM-51" value="" style="edgeStyle=orthogonalEdgeStyle;rounded=0;orthogonalLoop=1;jettySize=auto;html=1;labelBackgroundColor=none;sketch=1;curved=1;" edge="1" parent="WIyWlLk6GJQsqaUBKTNV-1" source="vwcy31EGOwFMrzwBE-xM-49" target="vwcy31EGOwFMrzwBE-xM-9">
          <mxGeometry relative="1" as="geometry" />
        </mxCell>
        <mxCell id="vwcy31EGOwFMrzwBE-xM-49" value="返回中断标志" style="whiteSpace=wrap;html=1;strokeWidth=2;sketch=1;" vertex="1" parent="WIyWlLk6GJQsqaUBKTNV-1">
          <mxGeometry x="-530" y="250" width="105" height="55" as="geometry" />
        </mxCell>
        <mxCell id="vwcy31EGOwFMrzwBE-xM-52" value="获取资源失败之后是否需要park" style="strokeWidth=1;html=1;shape=mxgraph.flowchart.decision;whiteSpace=wrap;sketch=1;" vertex="1" parent="WIyWlLk6GJQsqaUBKTNV-1">
          <mxGeometry x="-200" y="155" width="90" height="60" as="geometry" />
        </mxCell>
        <mxCell id="vwcy31EGOwFMrzwBE-xM-55" value="" style="endArrow=classic;html=1;labelBackgroundColor=none;exitX=0.989;exitY=0.522;exitDx=0;exitDy=0;exitPerimeter=0;entryX=0.007;entryY=0.522;entryDx=0;entryDy=0;entryPerimeter=0;sketch=1;curved=1;" edge="1" parent="WIyWlLk6GJQsqaUBKTNV-1" source="vwcy31EGOwFMrzwBE-xM-35" target="vwcy31EGOwFMrzwBE-xM-52">
          <mxGeometry relative="1" as="geometry">
            <mxPoint x="-280" y="200" as="sourcePoint" />
            <mxPoint x="-180" y="200" as="targetPoint" />
          </mxGeometry>
        </mxCell>
        <mxCell id="vwcy31EGOwFMrzwBE-xM-56" value="false" style="edgeLabel;resizable=0;html=1;align=center;verticalAlign=middle;sketch=1;" connectable="0" vertex="1" parent="vwcy31EGOwFMrzwBE-xM-55">
          <mxGeometry relative="1" as="geometry" />
        </mxCell>
        <mxCell id="vwcy31EGOwFMrzwBE-xM-57" value="" style="endArrow=classic;html=1;labelBackgroundColor=none;entryX=0.509;entryY=0.024;entryDx=0;entryDy=0;entryPerimeter=0;exitX=0.57;exitY=0.069;exitDx=0;exitDy=0;exitPerimeter=0;sketch=1;curved=1;" edge="1" parent="WIyWlLk6GJQsqaUBKTNV-1" source="vwcy31EGOwFMrzwBE-xM-52" target="vwcy31EGOwFMrzwBE-xM-35">
          <mxGeometry relative="1" as="geometry">
            <mxPoint x="-110" y="190" as="sourcePoint" />
            <mxPoint x="-28.38000000000011" y="189.99999999999994" as="targetPoint" />
            <Array as="points">
              <mxPoint x="-230" y="140" />
            </Array>
          </mxGeometry>
        </mxCell>
        <mxCell id="vwcy31EGOwFMrzwBE-xM-58" value="false" style="edgeLabel;resizable=0;html=1;align=center;verticalAlign=middle;sketch=1;" connectable="0" vertex="1" parent="vwcy31EGOwFMrzwBE-xM-57">
          <mxGeometry relative="1" as="geometry" />
        </mxCell>
        <mxCell id="vwcy31EGOwFMrzwBE-xM-59" value="" style="endArrow=classic;html=1;labelBackgroundColor=none;exitX=0.51;exitY=0.976;exitDx=0;exitDy=0;exitPerimeter=0;entryX=0.533;entryY=-0.004;entryDx=0;entryDy=0;entryPerimeter=0;sketch=1;curved=1;" edge="1" parent="WIyWlLk6GJQsqaUBKTNV-1" source="vwcy31EGOwFMrzwBE-xM-52" target="vwcy31EGOwFMrzwBE-xM-61">
          <mxGeometry relative="1" as="geometry">
            <mxPoint x="-150.00000000000009" y="230.00000000000003" as="sourcePoint" />
            <mxPoint x="-150" y="250" as="targetPoint" />
          </mxGeometry>
        </mxCell>
        <mxCell id="vwcy31EGOwFMrzwBE-xM-60" value="true" style="edgeLabel;resizable=0;html=1;align=center;verticalAlign=middle;sketch=1;" connectable="0" vertex="1" parent="vwcy31EGOwFMrzwBE-xM-59">
          <mxGeometry relative="1" as="geometry" />
        </mxCell>
        <mxCell id="vwcy31EGOwFMrzwBE-xM-62" value="" style="edgeStyle=orthogonalEdgeStyle;rounded=0;orthogonalLoop=1;jettySize=auto;html=1;labelBackgroundColor=none;sketch=1;curved=1;" edge="1" parent="WIyWlLk6GJQsqaUBKTNV-1" source="vwcy31EGOwFMrzwBE-xM-61" target="vwcy31EGOwFMrzwBE-xM-49">
          <mxGeometry relative="1" as="geometry">
            <mxPoint x="-245" y="360" as="targetPoint" />
            <Array as="points">
              <mxPoint x="-157" y="330" />
              <mxPoint x="-477" y="330" />
            </Array>
          </mxGeometry>
        </mxCell>
        <mxCell id="vwcy31EGOwFMrzwBE-xM-61" value="进行park" style="rounded=0;whiteSpace=wrap;html=1;strokeWidth=2;sketch=1;" vertex="1" parent="WIyWlLk6GJQsqaUBKTNV-1">
          <mxGeometry x="-210" y="250" width="105" height="55" as="geometry" />
        </mxCell>
        <mxCell id="vwcy31EGOwFMrzwBE-xM-63" value="" style="endArrow=classic;html=1;labelBackgroundColor=none;sketch=1;curved=1;" edge="1" parent="WIyWlLk6GJQsqaUBKTNV-1">
          <mxGeometry relative="1" as="geometry">
            <mxPoint x="-280" y="280" as="sourcePoint" />
            <mxPoint x="-200" y="190" as="targetPoint" />
            <Array as="points">
              <mxPoint x="-240" y="260" />
            </Array>
          </mxGeometry>
        </mxCell>
        <mxCell id="vwcy31EGOwFMrzwBE-xM-64" value="false" style="edgeLabel;resizable=0;html=1;align=center;verticalAlign=middle;sketch=1;" connectable="0" vertex="1" parent="vwcy31EGOwFMrzwBE-xM-63">
          <mxGeometry relative="1" as="geometry" />
        </mxCell>
        <mxCell id="vwcy31EGOwFMrzwBE-xM-65" value="acquire" style="rounded=1;whiteSpace=wrap;html=1;sketch=1;strokeWidth=1;arcSize=37;" vertex="1" parent="WIyWlLk6GJQsqaUBKTNV-1">
          <mxGeometry x="-780" y="90" width="80" height="50" as="geometry" />
        </mxCell>
      </root>
    </mxGraphModel>
  </diagram>
</mxfile>
